<?xml version="1.0" encoding="UTF-8"?>
<svg width="512" height="512" enable-background="new 0 0 512 512" version="1.1" viewBox="0 0 512.02 512.02" xml:space="preserve" xmlns="http://www.w3.org/2000/svg">
<g xmlns="http://www.w3.org/2000/svg">
	<path d="m301.26 256.01 201.39-201.36c12.501-12.501 12.501-32.769 0-45.269-12.501-12.501-32.769-12.501-45.269 0l-201.37 201.39-201.36-201.39c-12.501-12.501-32.769-12.501-45.269 0s-12.501 32.769 0 45.269l201.39 201.36-201.39 201.37c-12.501 12.501-12.501 32.769 0 45.269s32.769 12.501 45.269 0l201.36-201.39 201.36 201.39c12.501 12.501 32.769 12.501 45.269 0 12.501-12.501 12.501-32.769 0-45.269l-201.39-201.37z" fill="#ababab" data-original="#000000"/>
</g>















</svg>

